<svg width="24" height="25" viewBox="0 0 24 25" fill="none" xmlns="http://www.w3.org/2000/svg">
<circle cx="12" cy="12.6359" r="12" fill="#311F09"/>
<path fill-rule="evenodd" clip-rule="evenodd" d="M17.5357 8.6168C17.8977 7.46513 16.8146 6.38212 15.663 6.74408L5.79798 9.8445C4.54271 10.239 4.37391 11.9463 5.52762 12.579L7.94493 13.9046C8.52699 14.2238 9.24986 14.1206 9.71925 13.6512L10.654 12.7164C10.9055 12.4649 11.3132 12.4649 11.5647 12.7164C11.8162 12.9679 11.8162 13.3756 11.5647 13.6271L10.6296 14.5623C10.1602 15.0317 10.0569 15.7546 10.3761 16.3366L11.7008 18.7522C12.3334 19.9059 14.0408 19.7371 14.4353 18.4818L17.5357 8.6168Z" fill="white"/>
</svg>
