<svg width="61" height="10" viewBox="0 0 61 10" fill="none" xmlns="http://www.w3.org/2000/svg">
<path d="M4.1264 1.64173C4.26672 1.20986 4.8777 1.20986 5.01803 1.64173L5.4935 3.10507C5.55625 3.29821 5.73623 3.42897 5.93931 3.42897H7.47796C7.93206 3.42897 8.12086 4.01005 7.75349 4.27696L6.5087 5.18136C6.3444 5.30073 6.27565 5.51231 6.33841 5.70545L6.81388 7.16879C6.9542 7.60066 6.45991 7.95979 6.09254 7.69288L4.84774 6.78848C4.68345 6.66911 4.46098 6.66911 4.29668 6.78848L3.05189 7.69288C2.68452 7.95979 2.19022 7.60066 2.33055 7.16879L2.80602 5.70545C2.86877 5.51231 2.80002 5.30073 2.63573 5.18136L1.39094 4.27696C1.02357 4.01005 1.21237 3.42897 1.66647 3.42897H3.20512C3.40819 3.42897 3.58818 3.29821 3.65093 3.10507L4.1264 1.64173Z" fill="#FF8A00"/>
<path d="M16.9731 1.64197C17.1134 1.2101 17.7244 1.2101 17.8647 1.64197L18.3402 3.10532C18.4029 3.29845 18.5829 3.42922 18.786 3.42922H20.3246C20.7787 3.42922 20.9675 4.0103 20.6002 4.27721L19.3554 5.1816C19.1911 5.30097 19.1223 5.51255 19.1851 5.70569L19.6606 7.16903C19.8009 7.6009 19.3066 7.96003 18.9392 7.69312L17.6944 6.78872C17.5301 6.66936 17.3077 6.66936 17.1434 6.78872L15.8986 7.69312C15.5312 7.96003 15.0369 7.6009 15.1772 7.16903L15.6527 5.70569C15.7155 5.51255 15.6467 5.30097 15.4824 5.1816L14.2376 4.27721C13.8702 4.0103 14.059 3.42922 14.5131 3.42922H16.0518C16.2549 3.42922 16.4349 3.29845 16.4976 3.10532L16.9731 1.64197Z" fill="#FF8A00"/>
<path d="M29.82 1.64197C29.9603 1.2101 30.5713 1.2101 30.7116 1.64197L31.1871 3.10532C31.2499 3.29845 31.4298 3.42922 31.6329 3.42922H33.1716C33.6257 3.42922 33.8145 4.0103 33.4471 4.27721L32.2023 5.1816C32.038 5.30097 31.9693 5.51255 32.032 5.70569L32.5075 7.16903C32.6478 7.6009 32.1535 7.96003 31.7861 7.69312L30.5413 6.78872C30.3771 6.66936 30.1546 6.66936 29.9903 6.78872L28.7455 7.69312C28.3781 7.96003 27.8838 7.6009 28.0242 7.16903L28.4996 5.70569C28.5624 5.51255 28.4936 5.30097 28.3293 5.1816L27.0845 4.27721C26.7172 4.0103 26.906 3.42922 27.3601 3.42922H28.8987C29.1018 3.42922 29.2818 3.29845 29.3445 3.10532L29.82 1.64197Z" fill="#FF8A00"/>
<path d="M42.6672 1.64185C42.8075 1.20998 43.4185 1.20998 43.5588 1.64185L44.0343 3.10519C44.097 3.29833 44.277 3.4291 44.4801 3.4291H46.0187C46.4728 3.4291 46.6616 4.01018 46.2943 4.27709L45.0495 5.18148C44.8852 5.30085 44.8164 5.51243 44.8792 5.70557L45.3546 7.16891C45.495 7.60078 45.0007 7.95991 44.6333 7.693L43.3885 6.7886C43.2242 6.66924 43.0017 6.66924 42.8375 6.7886L41.5927 7.693C41.2253 7.95991 40.731 7.60078 40.8713 7.16891L41.3468 5.70557C41.4095 5.51243 41.3408 5.30085 41.1765 5.18148L39.9317 4.27709C39.5643 4.01018 39.7531 3.4291 40.2072 3.4291H41.7459C41.949 3.4291 42.1289 3.29833 42.1917 3.10519L42.6672 1.64185Z" fill="#FF8A00"/>
<path d="M55.5139 1.64185C55.6542 1.20998 56.2652 1.20998 56.4055 1.64185L56.8809 3.10519C56.9437 3.29833 57.1237 3.4291 57.3268 3.4291H58.8654C59.3195 3.4291 59.5083 4.01018 59.1409 4.27709L57.8961 5.18148C57.7319 5.30085 57.6631 5.51243 57.7259 5.70557L58.2013 7.16891C58.3417 7.60078 57.8474 7.95991 57.48 7.693L56.2352 6.7886C56.0709 6.66924 55.8484 6.66924 55.6841 6.7886L54.4393 7.693C54.072 7.95991 53.5777 7.60078 53.718 7.16891L54.1935 5.70557C54.2562 5.51243 54.1875 5.30085 54.0232 5.18148L52.7784 4.27709C52.411 4.01018 52.5998 3.4291 53.0539 3.4291H54.5926C54.7956 3.4291 54.9756 3.29833 55.0384 3.10519L55.5139 1.64185Z" fill="white"/>
</svg>
