<svg width="20" height="16" viewBox="0 0 20 16" fill="none" xmlns="http://www.w3.org/2000/svg">
<path opacity="0.2" d="M0.258689 10.6451C0.258689 8.28757 1.042 6.28745 2.60864 4.64477C4.17527 2.98688 6.4948 1.74726 9.56722 0.925921V3.0249C8.60899 3.3139 7.78765 3.68654 7.1032 4.14284C6.43396 4.59914 5.90161 5.12389 5.50615 5.71708C5.1259 6.29506 4.93577 6.85023 4.93577 7.38258C4.93577 7.73241 5.04985 8.029 5.278 8.27236C5.52136 8.50051 5.99287 8.79711 6.69253 9.16215C7.8637 9.78576 8.44929 10.7288 8.44929 11.9912C8.44929 12.919 8.10706 13.6643 7.42261 14.2271C6.75337 14.7746 5.86358 15.0484 4.75325 15.0484C3.4604 15.0484 2.38809 14.6378 1.53633 13.8164C0.684569 12.9799 0.258689 11.9228 0.258689 10.6451ZM10.5255 10.6451C10.5255 8.28757 11.3088 6.28745 12.8754 4.64477C14.442 2.98688 16.7616 1.74726 19.834 0.925921V3.0249C18.8758 3.3139 18.0544 3.68654 17.37 4.14284C16.7007 4.59914 16.1684 5.12389 15.7729 5.71708C15.3927 6.29506 15.2025 6.85023 15.2025 7.38258C15.2025 7.73241 15.3166 8.029 15.5448 8.27236C15.7881 8.50051 16.2596 8.79711 16.9593 9.16215C18.1305 9.78576 18.7161 10.7288 18.7161 11.9912C18.7161 12.919 18.3738 13.6643 17.6894 14.2271C17.0201 14.7746 16.1303 15.0484 15.02 15.0484C13.7272 15.0484 12.6549 14.6378 11.8031 13.8164C10.9513 12.9799 10.5255 11.9228 10.5255 10.6451Z" fill="#FF8C00"/>
</svg>
