<svg width="21" height="15" viewBox="0 0 21 15" fill="none" xmlns="http://www.w3.org/2000/svg">
<path opacity="0.2" d="M20.0108 5.08888C20.0108 7.44644 19.2275 9.44655 17.6609 11.0892C16.0943 12.7471 13.7747 13.9867 10.7023 14.8081V12.7091C11.6605 12.4201 12.4819 12.0475 13.1663 11.5912C13.8356 11.1349 14.3679 10.6101 14.7634 10.0169C15.1436 9.43895 15.3338 8.88378 15.3338 8.35143C15.3338 8.0016 15.2197 7.70501 14.9915 7.46165C14.7482 7.2335 14.2767 6.9369 13.577 6.57186C12.4058 5.94825 11.8202 5.00523 11.8202 3.7428C11.8202 2.81498 12.1625 2.06969 12.8469 1.50692C13.5162 0.959361 14.4059 0.68558 15.5163 0.68558C16.8091 0.68558 17.8814 1.09625 18.7332 1.91759C19.585 2.75414 20.0108 3.81124 20.0108 5.08888ZM9.74408 5.08888C9.74408 7.44644 8.96076 9.44655 7.39413 11.0892C5.8275 12.7471 3.50797 13.9867 0.435542 14.8081V12.7091C1.39377 12.4201 2.21511 12.0475 2.89957 11.5912C3.56881 11.1349 4.10116 10.6101 4.49662 10.0169C4.87687 9.43895 5.06699 8.88378 5.06699 8.35143C5.06699 8.0016 4.95292 7.70501 4.72477 7.46165C4.48141 7.2335 4.0099 6.9369 3.31024 6.57186C2.13906 5.94825 1.55348 5.00523 1.55348 3.7428C1.55348 2.81498 1.8957 2.06969 2.58016 1.50692C3.2494 0.959361 4.13918 0.68558 5.24951 0.68558C6.54237 0.68558 7.61467 1.09625 8.46643 1.91759C9.3182 2.75414 9.74408 3.81124 9.74408 5.08888Z" fill="#FF8C00"/>
</svg>
